<svg xmlns="http://www.w3.org/2000/svg" width="52" height="52" aria-label="Lingua symbol" role="img" shape-rendering="geometricPrecision" viewBox="0 0 64 64"><title>Lingua Symbol</title><polygon fill="#f7f4f0" points="32 10.2 51.2 21.8 32 33.3 12.8 21.8"/><polygon fill="#e8e2dc" points="12.8 21.8 32 33.3 32 51.2 12.8 39.7"/><polygon fill="#ddd5ce" points="51.2 21.8 32 33.3 32 51.2 51.2 39.7"/><path fill="none" stroke="#1d1b18" stroke-linecap="round" stroke-linejoin="round" stroke-opacity=".7" stroke-width="2.4" d="M32 10.2 L51.2 21.8 L32 33.3 L12.8 21.8 Z"/><path fill="none" stroke="#1d1b18" stroke-linecap="round" stroke-linejoin="round" stroke-opacity=".7" stroke-width="2.4" d="M12.8 21.8 L12.8 39.7 M32 33.3 L32 51.2 M51.2 21.8 L51.2 39.7"/><path fill="none" stroke="#1d1b18" stroke-linecap="round" stroke-linejoin="round" stroke-opacity=".7" stroke-width="2.4" d="M12.8 39.7 L32 51.2 L51.2 39.7"/><path fill="none" stroke="#1d1b18" stroke-linecap="round" stroke-linejoin="round" stroke-opacity=".95" stroke-width="3.8" d="M32 10.2 L51.2 21.8 L51.2 39.7 L32 51.2 L12.8 39.7 L12.8 21.8 Z"/></svg>