<svg
  width="52"
  height="52"
  viewBox="0 0 64 64"
  xmlns="http://www.w3.org/2000/svg"
  role="img"
  aria-label="Specificity symbol"
  shape-rendering="geometricPrecision"
>
  <title>Specificity Symbol</title>
  <polygon
    points="32 10.2 51.2 21.8 32 33.3 12.8 21.8"
    fill="#f7f4f0"
  />
  <polygon
    points="12.8 21.8 32 33.3 32 51.2 12.8 39.7"
    fill="#e8e2dc"
  />
  <polygon
    points="51.2 21.8 32 33.3 32 51.2 51.2 39.7"
    fill="#ddd5ce"
  />
  <path
    d="M32 10.2 L51.2 21.8 L32 33.3 L12.8 21.8 Z"
    fill="none"
    stroke="#1d1b18"
    stroke-opacity="0.7"
    stroke-width="2.4"
    stroke-linecap="round"
    stroke-linejoin="round"
  />
  <path
    d="M12.8 21.8 L12.8 39.7 M32 33.3 L32 51.2 M51.2 21.8 L51.2 39.7"
    fill="none"
    stroke="#1d1b18"
    stroke-opacity="0.7"
    stroke-width="2.4"
    stroke-linecap="round"
    stroke-linejoin="round"
  />
  <path
    d="M12.8 39.7 L32 51.2 L51.2 39.7"
    fill="none"
    stroke="#1d1b18"
    stroke-opacity="0.7"
    stroke-width="2.4"
    stroke-linecap="round"
    stroke-linejoin="round"
  />
  <path
    d="M32 10.2 L51.2 21.8 L51.2 39.7 L32 51.2 L12.8 39.7 L12.8 21.8 Z"
    fill="none"
    stroke="#1d1b18"
    stroke-opacity="0.95"
    stroke-width="3.8"
    stroke-linecap="round"
    stroke-linejoin="round"
  />
</svg>
